<?xml version="1.0" encoding="UTF-8" standalone="no"?><!-- Generator: Gravit.io --><svg xmlns="http://www.w3.org/2000/svg" xmlns:xlink="http://www.w3.org/1999/xlink" style="isolation:isolate" viewBox="-16 20 1199 291" width="1199pt" height="291pt"><defs><clipPath id="_clipPath_IvNpl9ZBWcscpqjLK50zkyYVSfnwz4Sq"><rect x="-16" y="20" width="1199" height="291"/></clipPath></defs><g clip-path="url(#_clipPath_IvNpl9ZBWcscpqjLK50zkyYVSfnwz4Sq)"><path d=" M -16 33 L 22 30 L 28 233 L -1 233 L -16 33 Z " fill="rgb(132,112,192)"/><path d=" M 64 33 L 102 30 L 108 233 L 79 233 L 64 33 Z " fill="rgb(132,112,192)"/><path d=" M 8 122 L 86 126 L 86 151 L 8 139 L 8 122 Z " fill="rgb(132,112,192)"/><mask id="_mask_LAGnwj621lRyLGaGvJXewdePCno4KscG"><path d=" M 147.635 233 L 190.511 233 L 210 198 L 190.511 160 L 147.635 160 L 129.929 198 L 147.635 233 Z " fill="white" stroke="none"/></mask><path d=" M 147.635 233 L 190.511 233 L 210 198 L 190.511 160 L 147.635 160 L 129.929 198 L 147.635 233 Z " fill="none"/><path d=" M 147.635 233 L 190.511 233 L 210 198 L 190.511 160 L 147.635 160 L 129.929 198 L 147.635 233 Z " fill="none" mask="url(#_mask_LAGnwj621lRyLGaGvJXewdePCno4KscG)" vector-effect="non-scaling-stroke" stroke-width="32" stroke="rgb(132,112,192)" stroke-linejoin="miter" stroke-linecap="square" stroke-miterlimit="3"/><mask id="_mask_JJ5WgWzBUnmCyNAlBDMmT6WtXyFI2z93"><path d=" M 231.929 233 L 292.511 233 L 312 188.846 L 276 151 L 231.929 161.092 L 231.929 188.846 L 231.929 233 Z " fill="white" stroke="none"/></mask><path d=" M 231.929 233 L 292.511 233 L 312 188.846 L 276 151 L 231.929 161.092 L 231.929 188.846 L 231.929 233 Z " fill="none"/><path d=" M 231.929 233 L 292.511 233 L 312 188.846 L 276 151 L 231.929 161.092 L 231.929 188.846 L 231.929 233 Z " fill="none" mask="url(#_mask_JJ5WgWzBUnmCyNAlBDMmT6WtXyFI2z93)" vector-effect="non-scaling-stroke" stroke-width="32" stroke="rgb(132,112,192)" stroke-linejoin="miter" stroke-linecap="square" stroke-miterlimit="3"/><path d=" M 224 291.043 L 249.635 311 L 252 158 L 231.929 161.326 L 224 291.043 Z " fill="rgb(132,112,192)"/><mask id="_mask_dTPjVx4NR0OXr3dP00zhtVl3Va8Gt989"><path d=" M 1175.071 152.5 L 1114.489 152.5 L 1095 196.654 L 1112 234.5 L 1175.071 224.408 L 1175.071 196.654 L 1175.071 152.5 Z " fill="white" stroke="none"/></mask><path d=" M 1175.071 152.5 L 1114.489 152.5 L 1095 196.654 L 1112 234.5 L 1175.071 224.408 L 1175.071 196.654 L 1175.071 152.5 Z " fill="none"/><path d=" M 1175.071 152.5 L 1114.489 152.5 L 1095 196.654 L 1112 234.5 L 1175.071 224.408 L 1175.071 196.654 L 1175.071 152.5 Z " fill="none" mask="url(#_mask_dTPjVx4NR0OXr3dP00zhtVl3Va8Gt989)" vector-effect="non-scaling-stroke" stroke-width="32" stroke="rgb(132,112,192)" stroke-linejoin="miter" stroke-linecap="square" stroke-miterlimit="3"/><path d=" M 1183 94.457 L 1157.365 74.5 L 1155 234.5 L 1175.071 234.5 L 1183 94.457 Z " fill="rgb(132,112,192)"/><mask id="_mask_z4WY50V9wuREsm8jV6KbqxrVgWpPfFOo"><path d=" M 372.783 233 L 513.104 233 L 513.104 30 L 386 45 L 372.783 233 Z " fill="white" stroke="none"/></mask><path d=" M 372.783 233 L 513.104 233 L 513.104 30 L 386 45 L 372.783 233 Z " fill="rgb(255,255,255)"/><path d=" M 372.783 233 L 513.104 233 L 513.104 30 L 386 45 L 372.783 233 Z " fill="rgb(255,255,255)" mask="url(#_mask_z4WY50V9wuREsm8jV6KbqxrVgWpPfFOo)" vector-effect="non-scaling-stroke" stroke-width="68" stroke="rgb(132,112,192)" stroke-linejoin="miter" stroke-linecap="square" stroke-miterlimit="3"/><path d=" M 535 139 L 526 233 L 550 233 L 550 176 L 592 168 L 604 233 L 630 233 L 604 151 L 550 158 L 550 139 L 535 139 Z " fill="rgb(132,112,192)"/><path d=" M 1050 143 L 1049 234.5 L 1070 234.75 L 1068 173 L 1079 162 L 1095 157 L 1093 145 L 1078 146 L 1065 154 L 1063 143 L 1050 143 Z " fill="rgb(132,112,192)"/><path d=" M 1015.582 140.5 L 1006.582 234.5 L 1030.582 234.5 L 1030.582 140.5 L 1015.582 140.5 Z " fill="rgb(132,112,192)"/><mask id="_mask_pR2Jx9kMpNjXkgCH46JG8lt3kfW0deAN"><path d=" M 705 233 L 817 233 L 850 158 L 788 126 L 835 86 L 809 30 L 705 20 L 705 233 Z " fill="white" stroke="none"/></mask><path d=" M 705 233 L 817 233 L 850 158 L 788 126 L 835 86 L 809 30 L 705 20 L 705 233 Z " fill="none"/><path d=" M 705 233 L 817 233 L 850 158 L 788 126 L 835 86 L 809 30 L 705 20 L 705 233 Z " fill="none" mask="url(#_mask_pR2Jx9kMpNjXkgCH46JG8lt3kfW0deAN)" vector-effect="non-scaling-stroke" stroke-width="68" stroke="rgb(132,112,192)" stroke-linejoin="miter" stroke-linecap="square" stroke-miterlimit="3"/><path d=" M 713.856 116 L 798.289 107 L 783.443 126 L 802 137 L 712 160 L 713.856 116 Z " fill="rgb(132,112,192)"/><mask id="_mask_zIqYgX7eq3nK6BXhZUYsakRLU7u82CcC"><path d=" M 968.706 222.5 L 1021 218 L 1027 186 L 1014 157 L 968 159 L 951 187.5 L 968.706 222.5 Z " fill="white" stroke="none"/></mask><path d=" M 968.706 222.5 L 1021 218 L 1027 186 L 1014 157 L 968 159 L 951 187.5 L 968.706 222.5 Z " fill="none"/><path d=" M 968.706 222.5 L 1021 218 L 1027 186 L 1014 157 L 968 159 L 951 187.5 L 968.706 222.5 Z " fill="none" mask="url(#_mask_zIqYgX7eq3nK6BXhZUYsakRLU7u82CcC)" vector-effect="non-scaling-stroke" stroke-width="32" stroke="rgb(132,112,192)" stroke-linejoin="miter" stroke-linecap="square" stroke-miterlimit="3"/><mask id="_mask_xof1e52BBX5d1wDE1NQ41cwkTydimU0g"><path d=" M 879.635 234.5 L 922.511 234.5 L 942 199.5 L 922.511 161.5 L 879.635 161.5 L 861.929 199.5 L 879.635 234.5 Z " fill="white" stroke="none"/></mask><path d=" M 879.635 234.5 L 922.511 234.5 L 942 199.5 L 922.511 161.5 L 879.635 161.5 L 861.929 199.5 L 879.635 234.5 Z " fill="none"/><path d=" M 879.635 234.5 L 922.511 234.5 L 942 199.5 L 922.511 161.5 L 879.635 161.5 L 861.929 199.5 L 879.635 234.5 Z " fill="none" mask="url(#_mask_xof1e52BBX5d1wDE1NQ41cwkTydimU0g)" vector-effect="non-scaling-stroke" stroke-width="32" stroke="rgb(132,112,192)" stroke-linejoin="miter" stroke-linecap="square" stroke-miterlimit="3"/></g></svg>